<?xml version="1.0" encoding="UTF-8" standalone="no"?><!DOCTYPE svg PUBLIC "-//W3C//DTD SVG 1.1//EN" "http://www.w3.org/Graphics/SVG/1.1/DTD/svg11.dtd"><svg width="100%" height="100%" viewBox="0 0 1100 400" version="1.1" xmlns="http://www.w3.org/2000/svg" xmlns:xlink="http://www.w3.org/1999/xlink" xml:space="preserve" xmlns:serif="http://www.serif.com/" style="fill-rule:evenodd;clip-rule:evenodd;stroke-linejoin:round;stroke-miterlimit:2;"><path d="M292.416,-500.209l-570.709,1042.89l-2.48,-1.357l570.71,-1042.89l2.479,1.356Z" style="fill:#afbdd6;"/><path d="M369.055,-458.269l-570.709,1042.89l-2.48,-1.356l570.71,-1042.89l2.479,1.357Z" style="fill:#afbdd6;"/><path d="M281.468,-506.2l-570.71,1042.89l-2.479,-1.357l570.709,-1042.89l2.48,1.357Z" style="fill:#afbdd6;"/><path d="M303.365,-494.217l-570.71,1042.89l-2.479,-1.357l570.709,-1042.89l2.48,1.357Z" style="fill:#afbdd6;"/><path d="M314.313,-488.226l-570.709,1042.89l-2.48,-1.357l570.71,-1042.89l2.479,1.357Z" style="fill:#afbdd6;"/><path d="M325.262,-482.234l-570.71,1042.89l-2.48,-1.357l570.71,-1042.89l2.48,1.357Z" style="fill:#afbdd6;"/><path d="M336.21,-476.243l-570.71,1042.89l-2.479,-1.357l570.709,-1042.89l2.48,1.357Z" style="fill:#afbdd6;"/><path d="M347.158,-470.252l-570.709,1042.89l-2.48,-1.357l570.71,-1042.89l2.479,1.356Z" style="fill:#afbdd6;"/><path d="M358.107,-464.26l-570.71,1042.89l-2.479,-1.357l570.709,-1042.89l2.48,1.357Z" style="fill:#afbdd6;"/><path d="M270.52,-512.191l-570.71,1042.89l-2.48,-1.357l570.71,-1042.89l2.48,1.357Z" style="fill:#afbdd6;"/><path d="M259.571,-518.183l-570.709,1042.89l-2.48,-1.357l570.71,-1042.89l2.479,1.357Z" style="fill:#afbdd6;"/><path d="M1179.24,-14.905l-570.709,1042.89l-2.48,-1.357l570.71,-1042.89l2.479,1.357Z" style="fill:#afbdd6;"/><path d="M1168.29,-20.896l-570.71,1042.89l-2.479,-1.357l570.709,-1042.89l2.48,1.357Z" style="fill:#afbdd6;"/><path d="M1157.34,-26.888l-570.709,1042.89l-2.48,-1.357l570.71,-1042.89l2.479,1.357Z" style="fill:#afbdd6;"/><path d="M1146.39,-32.879l-570.71,1042.89l-2.479,-1.357l570.709,-1042.89l2.48,1.357Z" style="fill:#afbdd6;"/><path d="M1135.44,-38.87l-570.71,1042.89l-2.48,-1.357l570.71,-1042.89l2.48,1.357Z" style="fill:#afbdd6;"/><path d="M1124.5,-44.862l-570.709,1042.89l-2.48,-1.357l570.709,-1042.89l2.48,1.357Z" style="fill:#afbdd6;"/><path d="M1113.55,-50.853l-570.71,1042.89l-2.479,-1.357l570.709,-1042.89l2.48,1.357Z" style="fill:#afbdd6;"/><path d="M1102.6,-56.845l-570.709,1042.89l-2.48,-1.357l570.71,-1042.89l2.479,1.357Z" style="fill:#afbdd6;"/><path d="M1091.65,-62.836l-570.71,1042.89l-2.479,-1.357l570.709,-1042.89l2.48,1.357Z" style="fill:#afbdd6;"/><path d="M1080.7,-68.827l-570.71,1042.89l-2.48,-1.357l570.71,-1042.89l2.48,1.357Z" style="fill:#afbdd6;"/><path d="M1069.75,-74.819l-570.709,1042.89l-2.48,-1.357l570.709,-1042.89l2.48,1.357Z" style="fill:#afbdd6;"/><path d="M1058.81,-80.81l-570.71,1042.89l-2.479,-1.357l570.709,-1042.89l2.48,1.357Z" style="fill:#afbdd6;"/><path d="M1190.19,-8.913l-570.71,1042.89l-2.48,-1.357l570.71,-1042.89l2.48,1.357Z" style="fill:#afbdd6;"/><path d="M1201.13,-2.922l-570.71,1042.89l-2.479,-1.357l570.709,-1042.89l2.48,1.357Z" style="fill:#afbdd6;"/><path d="M1212.08,3.069l-570.709,1042.89l-2.48,-1.357l570.71,-1042.89l2.479,1.356Z" style="fill:#afbdd6;"/><path d="M1223.03,9.061l-570.71,1042.89l-2.479,-1.357l570.709,-1042.89l2.48,1.357Z" style="fill:#afbdd6;"/><path d="M1233.98,15.052l-570.709,1042.89l-2.48,-1.357l570.71,-1042.89l2.479,1.357Z" style="fill:#afbdd6;"/><path d="M1047.86,-86.802l-570.709,1042.89l-2.48,-1.357l570.71,-1042.89l2.479,1.357Z" style="fill:#afbdd6;"/><path d="M1244.93,21.044l-570.71,1042.89l-2.48,-1.357l570.71,-1042.89l2.48,1.357Z" style="fill:#afbdd6;"/><path d="M1255.88,27.035l-570.71,1042.89l-2.479,-1.357l570.709,-1042.89l2.48,1.357Z" style="fill:#afbdd6;"/><path d="M1266.82,33.026l-570.709,1042.89l-2.48,-1.357l570.71,-1042.89l2.479,1.356Z" style="fill:#afbdd6;"/><path d="M1036.91,-92.793l-570.71,1042.89l-2.479,-1.357l570.709,-1042.89l2.48,1.357Z" style="fill:#afbdd6;"/><path d="M1025.96,-98.784l-570.709,1042.89l-2.48,-1.357l570.71,-1042.89l2.479,1.357Z" style="fill:#afbdd6;"/><path d="M1015.01,-104.776l-570.709,1042.89l-2.48,-1.357l570.709,-1042.89l2.48,1.357Z" style="fill:#afbdd6;"/><path d="M1004.06,-110.767l-570.71,1042.89l-2.48,-1.357l570.71,-1042.89l2.48,1.357Z" style="fill:#afbdd6;"/><path d="M993.114,-116.759l-570.709,1042.89l-2.48,-1.357l570.71,-1042.89l2.479,1.357Z" style="fill:#afbdd6;"/><path d="M982.166,-122.75l-570.71,1042.89l-2.479,-1.357l570.709,-1042.89l2.48,1.357Z" style="fill:#afbdd6;"/><path d="M971.217,-128.741l-570.709,1042.89l-2.48,-1.357l570.71,-1042.89l2.479,1.357Z" style="fill:#afbdd6;"/><path d="M960.269,-134.733l-570.71,1042.89l-2.479,-1.357l570.709,-1042.89l2.48,1.357Z" style="fill:#afbdd6;"/><path d="M949.321,-140.724l-570.71,1042.89l-2.48,-1.357l570.71,-1042.89l2.48,1.357Z" style="fill:#afbdd6;"/><path d="M938.372,-146.716l-570.709,1042.89l-2.48,-1.356l570.71,-1042.89l2.479,1.357Z" style="fill:#afbdd6;"/><path d="M927.424,-152.707l-570.71,1042.89l-2.479,-1.357l570.709,-1042.89l2.48,1.357Z" style="fill:#afbdd6;"/><path d="M916.475,-158.698l-570.709,1042.89l-2.48,-1.357l570.71,-1042.89l2.479,1.357Z" style="fill:#afbdd6;"/><path d="M905.527,-164.69l-570.71,1042.89l-2.479,-1.357l570.709,-1042.89l2.48,1.357Z" style="fill:#afbdd6;"/><path d="M806.991,-218.613l-570.709,1042.89l-2.48,-1.357l570.71,-1042.89l2.479,1.356Z" style="fill:#afbdd6;"/><path d="M796.043,-224.604l-570.71,1042.89l-2.479,-1.357l570.709,-1042.89l2.48,1.357Z" style="fill:#afbdd6;"/><path d="M664.662,-296.501l-570.709,1042.89l-2.48,-1.357l570.71,-1042.89l2.479,1.357Z" style="fill:#afbdd6;"/><path d="M774.146,-236.587l-570.709,1042.89l-2.48,-1.357l570.71,-1042.89l2.479,1.357Z" style="fill:#afbdd6;"/><path d="M763.198,-242.578l-570.71,1042.89l-2.479,-1.357l570.709,-1042.89l2.48,1.357Z" style="fill:#afbdd6;"/><path d="M752.249,-248.57l-570.709,1042.89l-2.48,-1.357l570.71,-1042.89l2.479,1.356Z" style="fill:#afbdd6;"/><path d="M741.301,-254.561l-570.71,1042.89l-2.479,-1.357l570.709,-1042.89l2.48,1.357Z" style="fill:#afbdd6;"/><path d="M730.353,-260.552l-570.71,1042.89l-2.48,-1.357l570.71,-1042.89l2.48,1.357Z" style="fill:#afbdd6;"/><path d="M719.404,-266.544l-570.709,1042.89l-2.48,-1.357l570.71,-1042.89l2.479,1.357Z" style="fill:#afbdd6;"/><path d="M708.456,-272.535l-570.71,1042.89l-2.479,-1.357l570.709,-1042.89l2.48,1.357Z" style="fill:#afbdd6;"/><path d="M697.507,-278.527l-570.709,1042.89l-2.48,-1.357l570.71,-1042.89l2.479,1.357Z" style="fill:#afbdd6;"/><path d="M686.559,-284.518l-570.71,1042.89l-2.479,-1.357l570.709,-1042.89l2.48,1.357Z" style="fill:#afbdd6;"/><path d="M850.785,-194.647l-570.71,1042.89l-2.479,-1.357l570.709,-1042.89l2.48,1.357Z" style="fill:#afbdd6;"/><path d="M785.095,-230.595l-570.71,1042.89l-2.48,-1.357l570.71,-1042.89l2.48,1.357Z" style="fill:#afbdd6;"/><path d="M861.733,-188.655l-570.709,1042.89l-2.48,-1.357l570.71,-1042.89l2.479,1.357Z" style="fill:#afbdd6;"/><path d="M894.579,-170.681l-570.71,1042.89l-2.48,-1.357l570.71,-1042.89l2.48,1.357Z" style="fill:#afbdd6;"/><path d="M817.94,-212.621l-570.71,1042.89l-2.479,-1.357l570.709,-1042.89l2.48,1.357Z" style="fill:#afbdd6;"/><path d="M828.888,-206.63l-570.709,1042.89l-2.48,-1.356l570.71,-1042.89l2.479,1.357Z" style="fill:#afbdd6;"/><path d="M839.837,-200.638l-570.71,1042.89l-2.48,-1.357l570.71,-1042.89l2.48,1.357Z" style="fill:#afbdd6;"/><path d="M872.682,-182.664l-570.71,1042.89l-2.479,-1.357l570.709,-1042.89l2.48,1.357Z" style="fill:#afbdd6;"/><path d="M883.63,-176.673l-570.709,1042.89l-2.48,-1.356l570.71,-1042.89l2.479,1.357Z" style="fill:#afbdd6;"/><path d="M675.611,-290.509l-570.71,1042.89l-2.48,-1.357l570.71,-1042.89l2.48,1.357Z" style="fill:#afbdd6;"/><path d="M653.714,-302.492l-570.71,1042.89l-2.479,-1.357l570.709,-1042.89l2.48,1.357Z" style="fill:#afbdd6;"/><path d="M642.765,-308.484l-570.709,1042.89l-2.48,-1.357l570.71,-1042.89l2.479,1.357Z" style="fill:#afbdd6;"/><path d="M631.817,-314.475l-570.71,1042.89l-2.479,-1.357l570.709,-1042.89l2.48,1.357Z" style="fill:#afbdd6;"/><path d="M620.869,-320.466l-570.71,1042.89l-2.48,-1.357l570.71,-1042.89l2.48,1.357Z" style="fill:#afbdd6;"/><path d="M609.92,-326.458l-570.709,1042.89l-2.48,-1.357l570.71,-1042.89l2.479,1.357Z" style="fill:#afbdd6;"/><path d="M598.972,-332.449l-570.71,1042.89l-2.479,-1.357l570.709,-1042.89l2.48,1.357Z" style="fill:#afbdd6;"/><path d="M380.004,-452.277l-570.71,1042.89l-2.48,-1.357l570.71,-1042.89l2.48,1.357Z" style="fill:#afbdd6;"/><path d="M588.023,-338.441l-570.709,1042.89l-2.48,-1.357l570.71,-1042.89l2.479,1.357Z" style="fill:#afbdd6;"/><path d="M577.075,-344.432l-570.71,1042.89l-2.479,-1.357l570.709,-1042.89l2.48,1.357Z" style="fill:#afbdd6;"/><path d="M566.127,-350.423l-570.71,1042.89l-2.48,-1.357l570.71,-1042.89l2.48,1.357Z" style="fill:#afbdd6;"/><path d="M555.178,-356.415l-570.709,1042.89l-2.48,-1.357l570.709,-1042.89l2.48,1.357Z" style="fill:#afbdd6;"/><path d="M544.23,-362.406l-570.71,1042.89l-2.479,-1.357l570.709,-1042.89l2.48,1.357Z" style="fill:#afbdd6;"/><path d="M533.281,-368.398l-570.709,1042.89l-2.48,-1.357l570.71,-1042.89l2.479,1.357Z" style="fill:#afbdd6;"/><path d="M522.333,-374.389l-570.71,1042.89l-2.479,-1.357l570.709,-1042.89l2.48,1.357Z" style="fill:#afbdd6;"/><path d="M511.385,-380.38l-570.71,1042.89l-2.48,-1.357l570.71,-1042.89l2.48,1.357Z" style="fill:#afbdd6;"/><path d="M500.436,-386.372l-570.709,1042.89l-2.48,-1.357l570.709,-1042.89l2.48,1.357Z" style="fill:#afbdd6;"/><path d="M489.488,-392.363l-570.71,1042.89l-2.48,-1.357l570.71,-1042.89l2.48,1.357Z" style="fill:#afbdd6;"/><path d="M478.539,-398.355l-570.709,1042.89l-2.48,-1.357l570.71,-1042.89l2.479,1.357Z" style="fill:#afbdd6;"/><path d="M467.591,-404.346l-570.71,1042.89l-2.479,-1.357l570.709,-1042.89l2.48,1.357Z" style="fill:#afbdd6;"/><path d="M456.642,-410.337l-570.709,1042.89l-2.48,-1.357l570.71,-1042.89l2.479,1.357Z" style="fill:#afbdd6;"/><path d="M445.694,-416.329l-570.709,1042.89l-2.48,-1.357l570.709,-1042.89l2.48,1.357Z" style="fill:#afbdd6;"/><path d="M434.746,-422.32l-570.71,1042.89l-2.48,-1.357l570.71,-1042.89l2.48,1.357Z" style="fill:#afbdd6;"/><path d="M423.797,-428.312l-570.709,1042.89l-2.48,-1.356l570.71,-1042.89l2.479,1.357Z" style="fill:#afbdd6;"/><path d="M412.849,-434.303l-570.71,1042.89l-2.479,-1.357l570.709,-1042.89l2.48,1.357Z" style="fill:#afbdd6;"/><path d="M401.9,-440.294l-570.709,1042.89l-2.48,-1.357l570.71,-1042.89l2.479,1.357Z" style="fill:#afbdd6;"/><path d="M390.952,-446.286l-570.71,1042.89l-2.479,-1.357l570.709,-1042.89l2.48,1.357Z" style="fill:#afbdd6;"/><path d="M1277.77,39.018l-570.71,1042.89l-2.479,-1.357l570.709,-1042.89l2.48,1.357Z" style="fill:#afbdd6;"/><path d="M1299.67,51.001l-570.71,1042.89l-2.48,-1.357l570.71,-1042.89l2.48,1.357Z" style="fill:#afbdd6;"/><path d="M1288.72,45.009l-570.709,1042.89l-2.48,-1.357l570.71,-1042.89l2.479,1.357Z" style="fill:#afbdd6;"/></svg>