<?xml version="1.0" encoding="UTF-8" standalone="no"?><!DOCTYPE svg PUBLIC "-//W3C//DTD SVG 1.1//EN" "http://www.w3.org/Graphics/SVG/1.1/DTD/svg11.dtd"><svg width="100%" height="100%" viewBox="0 0 38 38" version="1.1" xmlns="http://www.w3.org/2000/svg" xmlns:xlink="http://www.w3.org/1999/xlink" xml:space="preserve" xmlns:serif="http://www.serif.com/" style="fill-rule:evenodd;clip-rule:evenodd;stroke-miterlimit:10;"><path d="M18.113,36.148l-12.113,-0.001l0,-32.147l12.113,-0c10.67,-0 18.17,4.52 18.17,16.075c-0.001,11.555 -7.501,16.072 -18.171,16.072Z" style="fill:#26a926;fill-rule:nonzero;"/><path d="M23.963,2.609c0.212,-0.214 0.464,-0.385 0.743,-0.501c0.279,-0.116 0.577,-0.176 0.879,-0.176c0.511,-0.003 1.009,0.164 1.416,0.474c0.407,0.309 0.7,0.745 0.834,1.238l0.735,1.929c0.385,0.185 0.75,0.387 1.12,0.6l-0.96,-2.774c-0.147,-0.548 -0.436,-1.049 -0.838,-1.451c-0.401,-0.401 -0.901,-0.69 -1.45,-0.837c-0.549,-0.148 -1.127,-0.148 -1.675,-0.001c-0.549,0.147 -1.05,0.435 -1.452,0.837l-1.772,1.915c0.398,0.038 0.79,0.085 1.175,0.138l1.245,-1.391Z" style="fill-rule:nonzero;stroke:#000;stroke-width:1px;"/><path d="M36.633,32.564l-1.254,-5.164c-0.178,0.458 -0.381,0.906 -0.607,1.343l0.958,4.071c0.11,0.396 0.113,0.813 0.009,1.211c-0.104,0.397 -0.311,0.759 -0.601,1.05c-0.289,0.291 -0.651,0.5 -1.048,0.606c-0.396,0.105 -0.814,0.104 -1.21,-0.004l-4.75,-1.28l-22.25,-6l-0.732,-0.198l-1.488,-0.4c-0.345,-0.094 -0.663,-0.266 -0.931,-0.502c-0.268,-0.236 -0.479,-0.53 -0.616,-0.86c-0.136,-0.33 -0.196,-0.687 -0.173,-1.044c0.022,-0.357 0.126,-0.703 0.303,-1.014c0.101,-0.183 0.227,-0.351 0.375,-0.5l2.934,-3.277l-0,-1.325l-3.594,3.94c-0.408,0.406 -0.701,0.912 -0.85,1.467c-0.073,0.274 -0.109,0.555 -0.108,0.838c0,0.29 0.038,0.579 0.113,0.86c0.11,0.418 0.302,0.811 0.565,1.155c0.438,0.57 1.054,0.979 1.75,1.162l23.249,6.25l5.971,1.608c0.141,0.039 0.284,0.068 0.43,0.087c0.142,0.018 0.286,0.027 0.43,0.028c0.497,-0.007 0.986,-0.127 1.43,-0.351c0.444,-0.224 0.831,-0.546 1.132,-0.942c0.302,-0.396 0.509,-0.855 0.606,-1.342c0.097,-0.488 0.083,-0.992 -0.043,-1.473Z" style="fill-rule:nonzero;stroke:#000;stroke-width:1px;"/></svg>