<svg width="38" height="38" viewBox="0 0 38 38" fill="none" xmlns="http://www.w3.org/2000/svg">
<path d="M18.1125 36.1475H6V4H18.1125C28.7825 4 36.2825 8.52 36.2825 20.075C36.2825 31.63 28.7825 36.1475 18.1125 36.1475Z" fill="#D0E2D0"/>
<path d="M23.9627 2.60936C24.1748 2.39465 24.4275 2.22421 24.706 2.10791C24.9845 1.99161 25.2833 1.93177 25.5852 1.93186C26.0965 1.92945 26.5943 2.09603 27.0012 2.40572C27.4081 2.71541 27.7013 3.15086 27.8352 3.64436L28.4402 5.89436C28.8252 6.07936 29.1902 6.28186 29.5602 6.49436L28.7302 3.39936C28.5831 2.85061 28.2942 2.35023 27.8925 1.94847C27.4908 1.54671 26.9905 1.25773 26.4418 1.11054C25.8931 0.963353 25.3153 0.963151 24.7665 1.10995C24.2176 1.25675 23.7171 1.54538 23.3152 1.94686L21.2227 4.03686C21.6202 4.07436 22.0127 4.12186 22.3977 4.17436L23.9627 2.60936Z" fill="white" stroke="white" stroke-miterlimit="10"/>
<path d="M36.6325 32.5644L35.1725 27.0919C34.9943 27.5499 34.7915 27.9981 34.565 28.4344L35.73 32.8144C35.84 33.2099 35.8432 33.6275 35.7392 34.0246C35.6353 34.4218 35.4279 34.7843 35.1382 35.0752C34.8486 35.3661 34.487 35.5751 34.0903 35.6808C33.6936 35.7865 33.276 35.7851 32.88 35.6769L28.13 34.3969L5.88001 28.3969L5.14751 28.1994L3.66001 27.7994C3.31537 27.7052 2.99684 27.5334 2.72878 27.2972C2.46073 27.061 2.25025 26.7667 2.11345 26.4366C1.97666 26.1066 1.91717 25.7496 1.93954 25.393C1.96191 25.0364 2.06554 24.6897 2.24251 24.3794C2.34389 24.1962 2.47008 24.028 2.61751 23.8794L5.88001 20.6019V19.2769L1.95751 23.2169C1.55043 23.623 1.2573 24.1291 1.10751 24.6844C1.03541 24.9577 0.999273 25.2392 1.00001 25.5219C1.00048 25.8122 1.03829 26.1012 1.11251 26.3819C1.22274 26.8004 1.41477 27.1929 1.67751 27.5369C2.11606 28.1074 2.73156 28.5163 3.42751 28.6994L26.6775 34.9494L32.6475 36.5569C32.7887 36.5956 32.9324 36.6248 33.0775 36.6444C33.2202 36.6621 33.3638 36.6713 33.5075 36.6719C34.0048 36.6649 34.4939 36.545 34.938 36.321C35.382 36.097 35.7692 35.7749 36.0703 35.3792C36.3715 34.9834 36.5786 34.5243 36.676 34.0366C36.7734 33.5489 36.7585 33.0454 36.6325 32.5644Z" fill="white" stroke="white" stroke-miterlimit="10"/>
</svg>
